<?xml version="1.0" encoding="UTF-8" standalone="no"?>
<!-- Created with Inkscape (http://www.inkscape.org/) -->

<svg
   width="192"
   height="192"
   viewBox="0 0 50.799999 50.8"
   version="1.1"
   id="svg1"
   inkscape:export-filename="icon-192x192.png"
   inkscape:export-xdpi="96"
   inkscape:export-ydpi="96"
   inkscape:version="1.3 (0e150ed, 2023-07-21)"
   sodipodi:docname="icon.svg"
   xmlns:inkscape="http://www.inkscape.org/namespaces/inkscape"
   xmlns:sodipodi="http://sodipodi.sourceforge.net/DTD/sodipodi-0.dtd"
   xmlns:xlink="http://www.w3.org/1999/xlink"
   xmlns="http://www.w3.org/2000/svg"
   xmlns:svg="http://www.w3.org/2000/svg">
  <sodipodi:namedview
     id="namedview1"
     pagecolor="#ffffff"
     bordercolor="#000000"
     borderopacity="0.25"
     inkscape:showpageshadow="2"
     inkscape:pageopacity="0.0"
     inkscape:pagecheckerboard="0"
     inkscape:deskcolor="#d1d1d1"
     inkscape:document-units="mm"
     showguides="false"
     inkscape:zoom="1.0259899"
     inkscape:cx="105.26419"
     inkscape:cy="225.63574"
     inkscape:window-width="1312"
     inkscape:window-height="830"
     inkscape:window-x="0"
     inkscape:window-y="38"
     inkscape:window-maximized="0"
     inkscape:current-layer="layer1" />
  <defs
     id="defs1">
    <linearGradient
       id="linearGradient10"
       inkscape:collect="always">
      <stop
         style="stop-color:#ff4500;stop-opacity:1"
         offset="0"
         id="stop10" />
      <stop
         style="stop-color:#646cff;stop-opacity:1"
         offset="1"
         id="stop11" />
    </linearGradient>
    <linearGradient
       inkscape:collect="always"
       xlink:href="#linearGradient10"
       id="linearGradient11"
       x1="17.758322"
       y1="3.015564"
       x2="37.86208"
       y2="55.034039"
       gradientUnits="userSpaceOnUse" />
    <linearGradient
       inkscape:collect="always"
       xlink:href="#linearGradient10"
       id="linearGradient12"
       gradientUnits="userSpaceOnUse"
       x1="17.758322"
       y1="3.015564"
       x2="37.86208"
       y2="55.034039"
       gradientTransform="translate(57.135151)" />
    <linearGradient
       inkscape:collect="always"
       xlink:href="#linearGradient10"
       id="linearGradient15"
       gradientUnits="userSpaceOnUse"
       x1="17.758322"
       y1="3.015564"
       x2="37.86208"
       y2="55.034039" />
    <linearGradient
       inkscape:collect="always"
       xlink:href="#linearGradient10"
       id="linearGradient17"
       gradientUnits="userSpaceOnUse"
       x1="17.758322"
       y1="3.015564"
       x2="37.86208"
       y2="55.034039" />
    <linearGradient
       inkscape:collect="always"
       xlink:href="#linearGradient10"
       id="linearGradient19"
       gradientUnits="userSpaceOnUse"
       x1="17.758322"
       y1="3.015564"
       x2="37.86208"
       y2="55.034039" />
  </defs>
  <g
     inkscape:label="Layer 1"
     inkscape:groupmode="layer"
     id="layer1">
    <g
       id="g13"
       transform="matrix(0.99978378,0,0,0.99819595,0,-1.8436017e-4)">
      <rect
         style="fill:url(#linearGradient11);fill-opacity:1;stroke-width:0.1;paint-order:fill markers stroke"
         id="rect1"
         width="50.789619"
         height="50.891811"
         x="0"
         y="-0.10219239"
         ry="11.95651" />
      <g
         id="g2"
         transform="translate(1.7883672,1.7883668)"
         style="fill:#9acd32;fill-opacity:1;stroke:none">
        <path
           d="m 23.605432,7.1935139 c -0.362589,8.35e-5 -0.723619,0.047688 -1.073837,0.1415934 -0.350176,0.094021 -0.686534,0.233533 -1.000455,0.4149618 -0.314034,0.1813052 -0.602962,0.4029963 -0.859379,0.6593912 -0.256213,0.2564495 -0.47773,0.5453762 -0.658875,0.8593791 -0.181291,0.3141101 -0.32063,0.6506437 -0.414445,1.0009726 -0.0939,0.350218 -0.14151,0.711247 -0.141593,1.073836 v 8.062557 h -8.062557 c -0.362571,-8.5e-5 -0.723591,0.04734 -1.073837,0.141077 -0.3501543,0.09386 -0.6865037,0.233193 -1.0004553,0.414445 -0.3142185,0.18127 -0.6033155,0.402957 -0.8598958,0.659391 -0.2563619,0.256261 -0.4780463,0.545007 -0.6593913,0.858862 -0.1814725,0.314088 -0.3209825,0.650614 -0.4149618,1.000973 -0.093907,0.350222 -0.1415099,0.711243 -0.1415934,1.073836 -1.302e-4,0.362744 0.0473,0.723941 0.1410767,1.074353 0.093979,0.350359 0.2334893,0.686885 0.4149617,1.000973 0.1813074,0.314037 0.4029933,0.602958 0.6593913,0.859379 0.2565486,0.256616 0.545647,0.478478 0.8598958,0.659908 0.3141138,0.181293 0.6506395,0.320629 1.0009721,0.414445 0.350246,0.09373 0.711266,0.141161 1.073837,0.141076 h 8.062557 v 8.062557 c 8.3e-5,0.362593 0.04769,0.723615 0.141593,1.073837 0.09382,0.350332 0.233152,0.686859 0.414445,1.000972 0.181147,0.314006 0.402659,0.602927 0.658875,0.859379 0.256388,0.25658 0.545312,0.478441 0.859379,0.659908 0.313951,0.181251 0.650301,0.320587 1.000455,0.414445 0.350199,0.09408 0.711221,0.141858 1.073837,0.14211 0.135812,-5.9e-5 0.271541,-0.0068 0.406693,-0.02015 0.135259,-0.01337 0.269781,-0.03337 0.403076,-0.05994 0.133311,-0.02641 0.265246,-0.05935 0.395325,-0.0987 0.129976,-0.03935 0.257944,-0.08505 0.383439,-0.136943 0.12542,-0.052 0.248214,-0.110116 0.367936,-0.174149 0.119809,-0.06417 0.236395,-0.134193 0.349333,-0.209806 0.112936,-0.07539 0.222106,-0.156273 0.327112,-0.242363 0.105009,-0.08613 0.205728,-0.177363 0.30179,-0.273368 0.09618,-0.09605 0.187588,-0.19677 0.273885,-0.301791 0.0861,-0.105174 0.16699,-0.214516 0.242363,-0.327628 0.07544,-0.112949 0.145285,-0.229534 0.209289,-0.349333 0.06403,-0.119722 0.122154,-0.242516 0.17415,-0.367936 0.05207,-0.125486 0.09794,-0.253454 0.137459,-0.383439 0.03935,-0.130079 0.07229,-0.262014 0.0987,-0.395325 0.02657,-0.133295 0.04658,-0.267817 0.05994,-0.403076 0.01337,-0.135153 0.02009,-0.270882 0.02015,-0.406694 v -8.062557 h 8.06204 c 0.135976,1.3e-4 0.271878,-0.0064 0.40721,-0.01964 0.135085,-0.01339 0.269435,-0.03339 0.40256,-0.05994 0.13331,-0.02641 0.265246,-0.05935 0.395324,-0.0987 0.129986,-0.03952 0.257954,-0.08539 0.383439,-0.13746 0.125595,-0.05198 0.248563,-0.110101 0.368453,-0.174149 0.119799,-0.064 0.236385,-0.133852 0.349333,-0.20929 0.112947,-0.07556 0.222117,-0.156613 0.327112,-0.242879 0.105009,-0.08613 0.205728,-0.177363 0.30179,-0.273368 0.09601,-0.09606 0.187239,-0.196782 0.273369,-0.301791 0.08626,-0.104994 0.167324,-0.214164 0.242879,-0.327111 0.07544,-0.112949 0.145285,-0.229535 0.209289,-0.349333 0.06405,-0.119891 0.122169,-0.242858 0.17415,-0.368453 0.05189,-0.125495 0.0976,-0.253463 0.136942,-0.383439 0.03951,-0.1299 0.07262,-0.261662 0.09922,-0.394808 0.0264,-0.133304 0.04623,-0.267826 0.05943,-0.403076 0.01337,-0.135153 0.0201,-0.270882 0.02015,-0.406694 -8.4e-5,-0.362592 -0.04769,-0.723616 -0.141594,-1.073836 -0.09398,-0.350357 -0.23349,-0.686887 -0.414961,-1.000973 -0.181505,-0.313884 -0.403366,-0.602633 -0.659908,-0.858862 -0.25642,-0.256397 -0.545344,-0.478085 -0.859379,-0.659391 -0.313951,-0.181251 -0.650303,-0.320587 -1.000456,-0.414445 -0.350411,-0.09378 -0.711611,-0.141207 -1.074353,-0.141077 h -8.06204 v -8.062557 c -6e-5,-0.135811 -0.0068,-0.271542 -0.02015,-0.406693 -0.01337,-0.135258 -0.03337,-0.269782 -0.05994,-0.403077 -0.02642,-0.133135 -0.05936,-0.2649 -0.0987,-0.394807 C 27.537767,10.009086 27.491891,9.8811156 27.439823,9.7556314 27.387843,9.6300376 27.329721,9.5070683 27.265673,9.3871784 27.20167,9.2673812 27.13182,9.1507933 27.056384,9.0378458 26.980997,8.9249107 26.90011,8.8157391 26.814021,8.7107339 26.727725,8.6057139 26.636317,8.5049929 26.540136,8.4089436 26.444075,8.3129388 26.343354,8.2217037 26.238346,8.1355753 26.133352,8.04931 26.02418,7.9682503 25.911234,7.892696 25.798286,7.8172593 25.681699,7.7474101 25.561901,7.6834065 25.44218,7.6193738 25.319384,7.5612524 25.193965,7.5092569 25.068481,7.4571891 24.94051,7.4113128 24.810526,7.3717976 c -0.130077,-0.039353 -0.262015,-0.072294 -0.395325,-0.098702 -0.133294,-0.02657 -0.267818,-0.046576 -0.403076,-0.059945 -0.13516,-0.013196 -0.270891,-0.01975 -0.406693,-0.019637 z"
           style="fill:#9acd32;fill-opacity:1;stroke:none;stroke-width:4.3;stroke-linecap:round;stroke-dasharray:none;stroke-opacity:1;paint-order:fill markers stroke"
           id="path7" />
      </g>
    </g>
    <rect
       style="fill:#9acd32;fill-opacity:1;stroke:none;stroke-width:4.30001;stroke-linecap:round;stroke-dasharray:none;stroke-opacity:1;paint-order:fill markers stroke"
       id="rect8"
       width="7.6073785"
       height="4.0889659"
       x="1.8067523"
       y="10.365052"
       ry="2.0444829"
       transform="scale(1,-1)" />
    <rect
       style="fill:#ff4500;fill-opacity:1;stroke:none;stroke-width:4.30001;stroke-linecap:round;stroke-dasharray:none;stroke-opacity:1;paint-order:fill markers stroke"
       id="rect9"
       width="7.6073785"
       height="4.0889659"
       x="11.315975"
       y="10.365052"
       ry="2.0444829"
       transform="scale(1,-1)" />
    <rect
       style="fill:#646cff;fill-opacity:1;stroke:none;stroke-width:4.30001;stroke-linecap:round;stroke-dasharray:none;stroke-opacity:1;paint-order:fill markers stroke"
       id="rect10"
       width="7.6073785"
       height="4.0889659"
       x="21.110476"
       y="10.365052"
       ry="2.0444829"
       transform="scale(1,-1)" />
    <g
       id="g12"
       transform="matrix(2.6672117,0,0,2.6618559,-95.256391,0.16982901)"
       inkscape:export-filename="icon-512x512.png"
       inkscape:export-xdpi="96"
       inkscape:export-ydpi="96">
      <rect
         style="fill:url(#linearGradient12);fill-opacity:1;stroke-width:0.1;paint-order:fill markers stroke"
         id="rect11"
         width="50.789619"
         height="50.891811"
         x="57.135151"
         y="-0.10219239"
         ry="11.95651" />
      <g
         id="g11"
         transform="translate(58.923519,1.7883668)"
         style="fill:#9acd32;fill-opacity:1;stroke:none">
        <path
           d="m 23.605432,7.1935139 c -0.362589,8.35e-5 -0.723619,0.047688 -1.073837,0.1415934 -0.350176,0.094021 -0.686534,0.233533 -1.000455,0.4149618 -0.314034,0.1813052 -0.602962,0.4029963 -0.859379,0.6593912 -0.256213,0.2564495 -0.47773,0.5453762 -0.658875,0.8593791 -0.181291,0.3141101 -0.32063,0.6506437 -0.414445,1.0009726 -0.0939,0.350218 -0.14151,0.711247 -0.141593,1.073836 v 8.062557 h -8.062557 c -0.362571,-8.5e-5 -0.723591,0.04734 -1.073837,0.141077 -0.3501543,0.09386 -0.6865037,0.233193 -1.0004553,0.414445 -0.3142185,0.18127 -0.6033155,0.402957 -0.8598958,0.659391 -0.2563619,0.256261 -0.4780463,0.545007 -0.6593913,0.858862 -0.1814725,0.314088 -0.3209825,0.650614 -0.4149618,1.000973 -0.093907,0.350222 -0.1415099,0.711243 -0.1415934,1.073836 -1.302e-4,0.362744 0.0473,0.723941 0.1410767,1.074353 0.093979,0.350359 0.2334893,0.686885 0.4149617,1.000973 0.1813074,0.314037 0.4029933,0.602958 0.6593913,0.859379 0.2565486,0.256616 0.545647,0.478478 0.8598958,0.659908 0.3141138,0.181293 0.6506395,0.320629 1.0009721,0.414445 0.350246,0.09373 0.711266,0.141161 1.073837,0.141076 h 8.062557 v 8.062557 c 8.3e-5,0.362593 0.04769,0.723615 0.141593,1.073837 0.09382,0.350332 0.233152,0.686859 0.414445,1.000972 0.181147,0.314006 0.402659,0.602927 0.658875,0.859379 0.256388,0.25658 0.545312,0.478441 0.859379,0.659908 0.313951,0.181251 0.650301,0.320587 1.000455,0.414445 0.350199,0.09408 0.711221,0.141858 1.073837,0.14211 0.135812,-5.9e-5 0.271541,-0.0068 0.406693,-0.02015 0.135259,-0.01337 0.269781,-0.03337 0.403076,-0.05994 0.133311,-0.02641 0.265246,-0.05935 0.395325,-0.0987 0.129976,-0.03935 0.257944,-0.08505 0.383439,-0.136943 0.12542,-0.052 0.248214,-0.110116 0.367936,-0.174149 0.119809,-0.06417 0.236395,-0.134193 0.349333,-0.209806 0.112936,-0.07539 0.222106,-0.156273 0.327112,-0.242363 0.105009,-0.08613 0.205728,-0.177363 0.30179,-0.273368 0.09618,-0.09605 0.187588,-0.19677 0.273885,-0.301791 0.0861,-0.105174 0.16699,-0.214516 0.242363,-0.327628 0.07544,-0.112949 0.145285,-0.229534 0.209289,-0.349333 0.06403,-0.119722 0.122154,-0.242516 0.17415,-0.367936 0.05207,-0.125486 0.09794,-0.253454 0.137459,-0.383439 0.03935,-0.130079 0.07229,-0.262014 0.0987,-0.395325 0.02657,-0.133295 0.04658,-0.267817 0.05994,-0.403076 0.01337,-0.135153 0.02009,-0.270882 0.02015,-0.406694 v -8.062557 h 8.06204 c 0.135976,1.3e-4 0.271878,-0.0064 0.40721,-0.01964 0.135085,-0.01339 0.269435,-0.03339 0.40256,-0.05994 0.13331,-0.02641 0.265246,-0.05935 0.395324,-0.0987 0.129986,-0.03952 0.257954,-0.08539 0.383439,-0.13746 0.125595,-0.05198 0.248563,-0.110101 0.368453,-0.174149 0.119799,-0.064 0.236385,-0.133852 0.349333,-0.20929 0.112947,-0.07556 0.222117,-0.156613 0.327112,-0.242879 0.105009,-0.08613 0.205728,-0.177363 0.30179,-0.273368 0.09601,-0.09606 0.187239,-0.196782 0.273369,-0.301791 0.08626,-0.104994 0.167324,-0.214164 0.242879,-0.327111 0.07544,-0.112949 0.145285,-0.229535 0.209289,-0.349333 0.06405,-0.119891 0.122169,-0.242858 0.17415,-0.368453 0.05189,-0.125495 0.0976,-0.253463 0.136942,-0.383439 0.03951,-0.1299 0.07262,-0.261662 0.09922,-0.394808 0.0264,-0.133304 0.04623,-0.267826 0.05943,-0.403076 0.01337,-0.135153 0.0201,-0.270882 0.02015,-0.406694 -8.4e-5,-0.362592 -0.04769,-0.723616 -0.141594,-1.073836 -0.09398,-0.350357 -0.23349,-0.686887 -0.414961,-1.000973 -0.181505,-0.313884 -0.403366,-0.602633 -0.659908,-0.858862 -0.25642,-0.256397 -0.545344,-0.478085 -0.859379,-0.659391 -0.313951,-0.181251 -0.650303,-0.320587 -1.000456,-0.414445 -0.350411,-0.09378 -0.711611,-0.141207 -1.074353,-0.141077 h -8.06204 v -8.062557 c -6e-5,-0.135811 -0.0068,-0.271542 -0.02015,-0.406693 -0.01337,-0.135258 -0.03337,-0.269782 -0.05994,-0.403077 -0.02642,-0.133135 -0.05936,-0.2649 -0.0987,-0.394807 C 27.537767,10.009086 27.491891,9.8811156 27.439823,9.7556314 27.387843,9.6300376 27.329721,9.5070683 27.265673,9.3871784 27.20167,9.2673812 27.13182,9.1507933 27.056384,9.0378458 26.980997,8.9249107 26.90011,8.8157391 26.814021,8.7107339 26.727725,8.6057139 26.636317,8.5049929 26.540136,8.4089436 26.444075,8.3129388 26.343354,8.2217037 26.238346,8.1355753 26.133352,8.04931 26.02418,7.9682503 25.911234,7.892696 25.798286,7.8172593 25.681699,7.7474101 25.561901,7.6834065 25.44218,7.6193738 25.319384,7.5612524 25.193965,7.5092569 25.068481,7.4571891 24.94051,7.4113128 24.810526,7.3717976 c -0.130077,-0.039353 -0.262015,-0.072294 -0.395325,-0.098702 -0.133294,-0.02657 -0.267818,-0.046576 -0.403076,-0.059945 -0.13516,-0.013196 -0.270891,-0.01975 -0.406693,-0.019637 z"
           style="fill:#9acd32;fill-opacity:1;stroke:none;stroke-width:4.3;stroke-linecap:round;stroke-dasharray:none;stroke-opacity:1;paint-order:fill markers stroke"
           id="path11" />
      </g>
    </g>
    <g
       id="g15"
       transform="matrix(0.08335037,0,0,0.083183,-0.25788099,58.961062)">
      <rect
         style="fill:url(#linearGradient15);fill-opacity:1;stroke-width:0.1;paint-order:fill markers stroke"
         id="rect13"
         width="50.789619"
         height="50.891811"
         x="0"
         y="-0.10219239"
         ry="11.95651" />
      <g
         id="g14"
         transform="translate(1.7883672,1.7883668)"
         style="fill:#9acd32;fill-opacity:1;stroke:none">
        <path
           d="m 23.605432,7.1935139 c -0.362589,8.35e-5 -0.723619,0.047688 -1.073837,0.1415934 -0.350176,0.094021 -0.686534,0.233533 -1.000455,0.4149618 -0.314034,0.1813052 -0.602962,0.4029963 -0.859379,0.6593912 -0.256213,0.2564495 -0.47773,0.5453762 -0.658875,0.8593791 -0.181291,0.3141101 -0.32063,0.6506437 -0.414445,1.0009726 -0.0939,0.350218 -0.14151,0.711247 -0.141593,1.073836 v 8.062557 h -8.062557 c -0.362571,-8.5e-5 -0.723591,0.04734 -1.073837,0.141077 -0.3501543,0.09386 -0.6865037,0.233193 -1.0004553,0.414445 -0.3142185,0.18127 -0.6033155,0.402957 -0.8598958,0.659391 -0.2563619,0.256261 -0.4780463,0.545007 -0.6593913,0.858862 -0.1814725,0.314088 -0.3209825,0.650614 -0.4149618,1.000973 -0.093907,0.350222 -0.1415099,0.711243 -0.1415934,1.073836 -1.302e-4,0.362744 0.0473,0.723941 0.1410767,1.074353 0.093979,0.350359 0.2334893,0.686885 0.4149617,1.000973 0.1813074,0.314037 0.4029933,0.602958 0.6593913,0.859379 0.2565486,0.256616 0.545647,0.478478 0.8598958,0.659908 0.3141138,0.181293 0.6506395,0.320629 1.0009721,0.414445 0.350246,0.09373 0.711266,0.141161 1.073837,0.141076 h 8.062557 v 8.062557 c 8.3e-5,0.362593 0.04769,0.723615 0.141593,1.073837 0.09382,0.350332 0.233152,0.686859 0.414445,1.000972 0.181147,0.314006 0.402659,0.602927 0.658875,0.859379 0.256388,0.25658 0.545312,0.478441 0.859379,0.659908 0.313951,0.181251 0.650301,0.320587 1.000455,0.414445 0.350199,0.09408 0.711221,0.141858 1.073837,0.14211 0.135812,-5.9e-5 0.271541,-0.0068 0.406693,-0.02015 0.135259,-0.01337 0.269781,-0.03337 0.403076,-0.05994 0.133311,-0.02641 0.265246,-0.05935 0.395325,-0.0987 0.129976,-0.03935 0.257944,-0.08505 0.383439,-0.136943 0.12542,-0.052 0.248214,-0.110116 0.367936,-0.174149 0.119809,-0.06417 0.236395,-0.134193 0.349333,-0.209806 0.112936,-0.07539 0.222106,-0.156273 0.327112,-0.242363 0.105009,-0.08613 0.205728,-0.177363 0.30179,-0.273368 0.09618,-0.09605 0.187588,-0.19677 0.273885,-0.301791 0.0861,-0.105174 0.16699,-0.214516 0.242363,-0.327628 0.07544,-0.112949 0.145285,-0.229534 0.209289,-0.349333 0.06403,-0.119722 0.122154,-0.242516 0.17415,-0.367936 0.05207,-0.125486 0.09794,-0.253454 0.137459,-0.383439 0.03935,-0.130079 0.07229,-0.262014 0.0987,-0.395325 0.02657,-0.133295 0.04658,-0.267817 0.05994,-0.403076 0.01337,-0.135153 0.02009,-0.270882 0.02015,-0.406694 v -8.062557 h 8.06204 c 0.135976,1.3e-4 0.271878,-0.0064 0.40721,-0.01964 0.135085,-0.01339 0.269435,-0.03339 0.40256,-0.05994 0.13331,-0.02641 0.265246,-0.05935 0.395324,-0.0987 0.129986,-0.03952 0.257954,-0.08539 0.383439,-0.13746 0.125595,-0.05198 0.248563,-0.110101 0.368453,-0.174149 0.119799,-0.064 0.236385,-0.133852 0.349333,-0.20929 0.112947,-0.07556 0.222117,-0.156613 0.327112,-0.242879 0.105009,-0.08613 0.205728,-0.177363 0.30179,-0.273368 0.09601,-0.09606 0.187239,-0.196782 0.273369,-0.301791 0.08626,-0.104994 0.167324,-0.214164 0.242879,-0.327111 0.07544,-0.112949 0.145285,-0.229535 0.209289,-0.349333 0.06405,-0.119891 0.122169,-0.242858 0.17415,-0.368453 0.05189,-0.125495 0.0976,-0.253463 0.136942,-0.383439 0.03951,-0.1299 0.07262,-0.261662 0.09922,-0.394808 0.0264,-0.133304 0.04623,-0.267826 0.05943,-0.403076 0.01337,-0.135153 0.0201,-0.270882 0.02015,-0.406694 -8.4e-5,-0.362592 -0.04769,-0.723616 -0.141594,-1.073836 -0.09398,-0.350357 -0.23349,-0.686887 -0.414961,-1.000973 -0.181505,-0.313884 -0.403366,-0.602633 -0.659908,-0.858862 -0.25642,-0.256397 -0.545344,-0.478085 -0.859379,-0.659391 -0.313951,-0.181251 -0.650303,-0.320587 -1.000456,-0.414445 -0.350411,-0.09378 -0.711611,-0.141207 -1.074353,-0.141077 h -8.06204 v -8.062557 c -6e-5,-0.135811 -0.0068,-0.271542 -0.02015,-0.406693 -0.01337,-0.135258 -0.03337,-0.269782 -0.05994,-0.403077 -0.02642,-0.133135 -0.05936,-0.2649 -0.0987,-0.394807 C 27.537767,10.009086 27.491891,9.8811156 27.439823,9.7556314 27.387843,9.6300376 27.329721,9.5070683 27.265673,9.3871784 27.20167,9.2673812 27.13182,9.1507933 27.056384,9.0378458 26.980997,8.9249107 26.90011,8.8157391 26.814021,8.7107339 26.727725,8.6057139 26.636317,8.5049929 26.540136,8.4089436 26.444075,8.3129388 26.343354,8.2217037 26.238346,8.1355753 26.133352,8.04931 26.02418,7.9682503 25.911234,7.892696 25.798286,7.8172593 25.681699,7.7474101 25.561901,7.6834065 25.44218,7.6193738 25.319384,7.5612524 25.193965,7.5092569 25.068481,7.4571891 24.94051,7.4113128 24.810526,7.3717976 c -0.130077,-0.039353 -0.262015,-0.072294 -0.395325,-0.098702 -0.133294,-0.02657 -0.267818,-0.046576 -0.403076,-0.059945 -0.13516,-0.013196 -0.270891,-0.01975 -0.406693,-0.019637 z"
           style="fill:#9acd32;fill-opacity:1;stroke:none;stroke-width:4.3;stroke-linecap:round;stroke-dasharray:none;stroke-opacity:1;paint-order:fill markers stroke"
           id="path13" />
      </g>
    </g>
    <g
       id="g17"
       transform="matrix(0.16670073,0,0,0.16636599,18.174924,57.938039)">
      <rect
         style="fill:url(#linearGradient17);fill-opacity:1;stroke-width:0.1;paint-order:fill markers stroke"
         id="rect15"
         width="50.789619"
         height="50.891811"
         x="0"
         y="-0.10219239"
         ry="11.95651" />
      <g
         id="g16"
         transform="translate(1.7883672,1.7883668)"
         style="fill:#9acd32;fill-opacity:1;stroke:none">
        <path
           d="m 23.605432,7.1935139 c -0.362589,8.35e-5 -0.723619,0.047688 -1.073837,0.1415934 -0.350176,0.094021 -0.686534,0.233533 -1.000455,0.4149618 -0.314034,0.1813052 -0.602962,0.4029963 -0.859379,0.6593912 -0.256213,0.2564495 -0.47773,0.5453762 -0.658875,0.8593791 -0.181291,0.3141101 -0.32063,0.6506437 -0.414445,1.0009726 -0.0939,0.350218 -0.14151,0.711247 -0.141593,1.073836 v 8.062557 h -8.062557 c -0.362571,-8.5e-5 -0.723591,0.04734 -1.073837,0.141077 -0.3501543,0.09386 -0.6865037,0.233193 -1.0004553,0.414445 -0.3142185,0.18127 -0.6033155,0.402957 -0.8598958,0.659391 -0.2563619,0.256261 -0.4780463,0.545007 -0.6593913,0.858862 -0.1814725,0.314088 -0.3209825,0.650614 -0.4149618,1.000973 -0.093907,0.350222 -0.1415099,0.711243 -0.1415934,1.073836 -1.302e-4,0.362744 0.0473,0.723941 0.1410767,1.074353 0.093979,0.350359 0.2334893,0.686885 0.4149617,1.000973 0.1813074,0.314037 0.4029933,0.602958 0.6593913,0.859379 0.2565486,0.256616 0.545647,0.478478 0.8598958,0.659908 0.3141138,0.181293 0.6506395,0.320629 1.0009721,0.414445 0.350246,0.09373 0.711266,0.141161 1.073837,0.141076 h 8.062557 v 8.062557 c 8.3e-5,0.362593 0.04769,0.723615 0.141593,1.073837 0.09382,0.350332 0.233152,0.686859 0.414445,1.000972 0.181147,0.314006 0.402659,0.602927 0.658875,0.859379 0.256388,0.25658 0.545312,0.478441 0.859379,0.659908 0.313951,0.181251 0.650301,0.320587 1.000455,0.414445 0.350199,0.09408 0.711221,0.141858 1.073837,0.14211 0.135812,-5.9e-5 0.271541,-0.0068 0.406693,-0.02015 0.135259,-0.01337 0.269781,-0.03337 0.403076,-0.05994 0.133311,-0.02641 0.265246,-0.05935 0.395325,-0.0987 0.129976,-0.03935 0.257944,-0.08505 0.383439,-0.136943 0.12542,-0.052 0.248214,-0.110116 0.367936,-0.174149 0.119809,-0.06417 0.236395,-0.134193 0.349333,-0.209806 0.112936,-0.07539 0.222106,-0.156273 0.327112,-0.242363 0.105009,-0.08613 0.205728,-0.177363 0.30179,-0.273368 0.09618,-0.09605 0.187588,-0.19677 0.273885,-0.301791 0.0861,-0.105174 0.16699,-0.214516 0.242363,-0.327628 0.07544,-0.112949 0.145285,-0.229534 0.209289,-0.349333 0.06403,-0.119722 0.122154,-0.242516 0.17415,-0.367936 0.05207,-0.125486 0.09794,-0.253454 0.137459,-0.383439 0.03935,-0.130079 0.07229,-0.262014 0.0987,-0.395325 0.02657,-0.133295 0.04658,-0.267817 0.05994,-0.403076 0.01337,-0.135153 0.02009,-0.270882 0.02015,-0.406694 v -8.062557 h 8.06204 c 0.135976,1.3e-4 0.271878,-0.0064 0.40721,-0.01964 0.135085,-0.01339 0.269435,-0.03339 0.40256,-0.05994 0.13331,-0.02641 0.265246,-0.05935 0.395324,-0.0987 0.129986,-0.03952 0.257954,-0.08539 0.383439,-0.13746 0.125595,-0.05198 0.248563,-0.110101 0.368453,-0.174149 0.119799,-0.064 0.236385,-0.133852 0.349333,-0.20929 0.112947,-0.07556 0.222117,-0.156613 0.327112,-0.242879 0.105009,-0.08613 0.205728,-0.177363 0.30179,-0.273368 0.09601,-0.09606 0.187239,-0.196782 0.273369,-0.301791 0.08626,-0.104994 0.167324,-0.214164 0.242879,-0.327111 0.07544,-0.112949 0.145285,-0.229535 0.209289,-0.349333 0.06405,-0.119891 0.122169,-0.242858 0.17415,-0.368453 0.05189,-0.125495 0.0976,-0.253463 0.136942,-0.383439 0.03951,-0.1299 0.07262,-0.261662 0.09922,-0.394808 0.0264,-0.133304 0.04623,-0.267826 0.05943,-0.403076 0.01337,-0.135153 0.0201,-0.270882 0.02015,-0.406694 -8.4e-5,-0.362592 -0.04769,-0.723616 -0.141594,-1.073836 -0.09398,-0.350357 -0.23349,-0.686887 -0.414961,-1.000973 -0.181505,-0.313884 -0.403366,-0.602633 -0.659908,-0.858862 -0.25642,-0.256397 -0.545344,-0.478085 -0.859379,-0.659391 -0.313951,-0.181251 -0.650303,-0.320587 -1.000456,-0.414445 -0.350411,-0.09378 -0.711611,-0.141207 -1.074353,-0.141077 h -8.06204 v -8.062557 c -6e-5,-0.135811 -0.0068,-0.271542 -0.02015,-0.406693 -0.01337,-0.135258 -0.03337,-0.269782 -0.05994,-0.403077 -0.02642,-0.133135 -0.05936,-0.2649 -0.0987,-0.394807 C 27.537767,10.009086 27.491891,9.8811156 27.439823,9.7556314 27.387843,9.6300376 27.329721,9.5070683 27.265673,9.3871784 27.20167,9.2673812 27.13182,9.1507933 27.056384,9.0378458 26.980997,8.9249107 26.90011,8.8157391 26.814021,8.7107339 26.727725,8.6057139 26.636317,8.5049929 26.540136,8.4089436 26.444075,8.3129388 26.343354,8.2217037 26.238346,8.1355753 26.133352,8.04931 26.02418,7.9682503 25.911234,7.892696 25.798286,7.8172593 25.681699,7.7474101 25.561901,7.6834065 25.44218,7.6193738 25.319384,7.5612524 25.193965,7.5092569 25.068481,7.4571891 24.94051,7.4113128 24.810526,7.3717976 c -0.130077,-0.039353 -0.262015,-0.072294 -0.395325,-0.098702 -0.133294,-0.02657 -0.267818,-0.046576 -0.403076,-0.059945 -0.13516,-0.013196 -0.270891,-0.01975 -0.406693,-0.019637 z"
           style="fill:#9acd32;fill-opacity:1;stroke:none;stroke-width:4.3;stroke-linecap:round;stroke-dasharray:none;stroke-opacity:1;paint-order:fill markers stroke"
           id="path15" />
      </g>
    </g>
    <g
       id="g19"
       transform="matrix(0.2500511,0,0,0.24954899,0.2578809,101.78632)">
      <rect
         style="fill:url(#linearGradient19);fill-opacity:1;stroke-width:0.1;paint-order:fill markers stroke"
         id="rect17"
         width="50.789619"
         height="50.891811"
         x="0"
         y="-0.10219239"
         ry="11.95651" />
      <g
         id="g18"
         transform="translate(1.7883672,1.7883668)"
         style="fill:#9acd32;fill-opacity:1;stroke:none">
        <path
           d="m 23.605432,7.1935139 c -0.362589,8.35e-5 -0.723619,0.047688 -1.073837,0.1415934 -0.350176,0.094021 -0.686534,0.233533 -1.000455,0.4149618 -0.314034,0.1813052 -0.602962,0.4029963 -0.859379,0.6593912 -0.256213,0.2564495 -0.47773,0.5453762 -0.658875,0.8593791 -0.181291,0.3141101 -0.32063,0.6506437 -0.414445,1.0009726 -0.0939,0.350218 -0.14151,0.711247 -0.141593,1.073836 v 8.062557 h -8.062557 c -0.362571,-8.5e-5 -0.723591,0.04734 -1.073837,0.141077 -0.3501543,0.09386 -0.6865037,0.233193 -1.0004553,0.414445 -0.3142185,0.18127 -0.6033155,0.402957 -0.8598958,0.659391 -0.2563619,0.256261 -0.4780463,0.545007 -0.6593913,0.858862 -0.1814725,0.314088 -0.3209825,0.650614 -0.4149618,1.000973 -0.093907,0.350222 -0.1415099,0.711243 -0.1415934,1.073836 -1.302e-4,0.362744 0.0473,0.723941 0.1410767,1.074353 0.093979,0.350359 0.2334893,0.686885 0.4149617,1.000973 0.1813074,0.314037 0.4029933,0.602958 0.6593913,0.859379 0.2565486,0.256616 0.545647,0.478478 0.8598958,0.659908 0.3141138,0.181293 0.6506395,0.320629 1.0009721,0.414445 0.350246,0.09373 0.711266,0.141161 1.073837,0.141076 h 8.062557 v 8.062557 c 8.3e-5,0.362593 0.04769,0.723615 0.141593,1.073837 0.09382,0.350332 0.233152,0.686859 0.414445,1.000972 0.181147,0.314006 0.402659,0.602927 0.658875,0.859379 0.256388,0.25658 0.545312,0.478441 0.859379,0.659908 0.313951,0.181251 0.650301,0.320587 1.000455,0.414445 0.350199,0.09408 0.711221,0.141858 1.073837,0.14211 0.135812,-5.9e-5 0.271541,-0.0068 0.406693,-0.02015 0.135259,-0.01337 0.269781,-0.03337 0.403076,-0.05994 0.133311,-0.02641 0.265246,-0.05935 0.395325,-0.0987 0.129976,-0.03935 0.257944,-0.08505 0.383439,-0.136943 0.12542,-0.052 0.248214,-0.110116 0.367936,-0.174149 0.119809,-0.06417 0.236395,-0.134193 0.349333,-0.209806 0.112936,-0.07539 0.222106,-0.156273 0.327112,-0.242363 0.105009,-0.08613 0.205728,-0.177363 0.30179,-0.273368 0.09618,-0.09605 0.187588,-0.19677 0.273885,-0.301791 0.0861,-0.105174 0.16699,-0.214516 0.242363,-0.327628 0.07544,-0.112949 0.145285,-0.229534 0.209289,-0.349333 0.06403,-0.119722 0.122154,-0.242516 0.17415,-0.367936 0.05207,-0.125486 0.09794,-0.253454 0.137459,-0.383439 0.03935,-0.130079 0.07229,-0.262014 0.0987,-0.395325 0.02657,-0.133295 0.04658,-0.267817 0.05994,-0.403076 0.01337,-0.135153 0.02009,-0.270882 0.02015,-0.406694 v -8.062557 h 8.06204 c 0.135976,1.3e-4 0.271878,-0.0064 0.40721,-0.01964 0.135085,-0.01339 0.269435,-0.03339 0.40256,-0.05994 0.13331,-0.02641 0.265246,-0.05935 0.395324,-0.0987 0.129986,-0.03952 0.257954,-0.08539 0.383439,-0.13746 0.125595,-0.05198 0.248563,-0.110101 0.368453,-0.174149 0.119799,-0.064 0.236385,-0.133852 0.349333,-0.20929 0.112947,-0.07556 0.222117,-0.156613 0.327112,-0.242879 0.105009,-0.08613 0.205728,-0.177363 0.30179,-0.273368 0.09601,-0.09606 0.187239,-0.196782 0.273369,-0.301791 0.08626,-0.104994 0.167324,-0.214164 0.242879,-0.327111 0.07544,-0.112949 0.145285,-0.229535 0.209289,-0.349333 0.06405,-0.119891 0.122169,-0.242858 0.17415,-0.368453 0.05189,-0.125495 0.0976,-0.253463 0.136942,-0.383439 0.03951,-0.1299 0.07262,-0.261662 0.09922,-0.394808 0.0264,-0.133304 0.04623,-0.267826 0.05943,-0.403076 0.01337,-0.135153 0.0201,-0.270882 0.02015,-0.406694 -8.4e-5,-0.362592 -0.04769,-0.723616 -0.141594,-1.073836 -0.09398,-0.350357 -0.23349,-0.686887 -0.414961,-1.000973 -0.181505,-0.313884 -0.403366,-0.602633 -0.659908,-0.858862 -0.25642,-0.256397 -0.545344,-0.478085 -0.859379,-0.659391 -0.313951,-0.181251 -0.650303,-0.320587 -1.000456,-0.414445 -0.350411,-0.09378 -0.711611,-0.141207 -1.074353,-0.141077 h -8.06204 v -8.062557 c -6e-5,-0.135811 -0.0068,-0.271542 -0.02015,-0.406693 -0.01337,-0.135258 -0.03337,-0.269782 -0.05994,-0.403077 -0.02642,-0.133135 -0.05936,-0.2649 -0.0987,-0.394807 C 27.537767,10.009086 27.491891,9.8811156 27.439823,9.7556314 27.387843,9.6300376 27.329721,9.5070683 27.265673,9.3871784 27.20167,9.2673812 27.13182,9.1507933 27.056384,9.0378458 26.980997,8.9249107 26.90011,8.8157391 26.814021,8.7107339 26.727725,8.6057139 26.636317,8.5049929 26.540136,8.4089436 26.444075,8.3129388 26.343354,8.2217037 26.238346,8.1355753 26.133352,8.04931 26.02418,7.9682503 25.911234,7.892696 25.798286,7.8172593 25.681699,7.7474101 25.561901,7.6834065 25.44218,7.6193738 25.319384,7.5612524 25.193965,7.5092569 25.068481,7.4571891 24.94051,7.4113128 24.810526,7.3717976 c -0.130077,-0.039353 -0.262015,-0.072294 -0.395325,-0.098702 -0.133294,-0.02657 -0.267818,-0.046576 -0.403076,-0.059945 -0.13516,-0.013196 -0.270891,-0.01975 -0.406693,-0.019637 z"
           style="fill:#9acd32;fill-opacity:1;stroke:none;stroke-width:4.3;stroke-linecap:round;stroke-dasharray:none;stroke-opacity:1;paint-order:fill markers stroke"
           id="path17" />
      </g>
    </g>
  </g>
</svg>
